# xmcd
#
# Track frame offsets: 
#        150
#        15930
#        32355
#        46054
#        60104
#        78032
#        92882
#        105352
#        123709
#        134554
#        149874
#
# Disc length: 2080 seconds
#
# Revision: 0
# Processed by: cddbd v1.5.2PL0 Copyright (c) Steve Scherf et al.
# Submitted via: ExactAudioCopy v0.99pb4
#
DISCID=83081e0b
DTITLE=BluesRudy - BluesRudy and Marko Jovanovic
DYEAR=2010
DGENRE=Blues
TTITLE0=Take me back
TTITLE1=Driftin'
TTITLE2=Quiet woman
TTITLE3=I'm watching
TTITLE4=Bring it on home
TTITLE5=Time was
TTITLE6=Wait and see
TTITLE7=It Don't matter
TTITLE8=Don't know where she went (she split)
TTITLE9=Got you on my mind
TTITLE10=Regent whistle
EXTD=
EXTT0=
EXTT1=
EXTT2=
EXTT3=
EXTT4=
EXTT5=
EXTT6=
EXTT7=
EXTT8=
EXTT9=
EXTT10=
PLAYORDER=
